<svg width="40" height="40" viewBox="0 0 40 40" fill="none" xmlns="http://www.w3.org/2000/svg">
<path fill-rule="evenodd" clip-rule="evenodd" d="M25.1274 7.07618C25.1274 8.26353 24.603 9.45088 23.8628 10.3076C23.0762 11.2545 21.7192 11.9609 20.6396 11.9611C20.5163 11.9611 20.3928 11.9459 20.3157 11.9309C20.3004 11.8708 20.2695 11.6904 20.2695 11.5101C20.2695 10.3076 20.9018 9.12024 21.5803 8.36875C22.444 7.39183 23.8782 6.65532 25.0812 6.61021C25.1121 6.74554 25.1274 6.91086 25.1274 7.07618ZM29.37 14.5555C29.4 14.5364 29.4205 14.5232 29.4301 14.5159C27.8263 12.2766 25.3895 12.2163 24.7108 12.2162C23.6739 12.2162 22.7458 12.5747 21.9655 12.8762C21.3997 13.0948 20.9116 13.2833 20.5161 13.2833C20.0799 13.2833 19.5804 13.0866 19.0229 12.867C18.3192 12.5898 17.5231 12.2763 16.6453 12.2763C13.6844 12.2763 10.6771 14.6661 10.6771 19.1751C10.6771 21.9857 11.7875 24.9465 13.16 26.8554C14.3474 28.4786 15.3807 29.8013 16.8612 29.8013C17.5633 29.8013 18.0781 29.5883 18.6195 29.3644C19.2197 29.1161 19.8525 28.8544 20.8092 28.8544C21.7754 28.8544 22.3529 29.1001 22.91 29.3371C23.4289 29.5579 23.9301 29.7712 24.711 29.7712C26.3302 29.7712 27.3944 28.3434 28.4122 26.9155C29.5534 25.2923 30.0316 23.6991 30.0469 23.624C29.9544 23.594 26.8546 22.3765 26.8546 18.9347C26.8546 16.1644 28.9662 14.8138 29.37 14.5555Z" fill="#121212"/>
</svg>
