<svg width="28" height="28" viewBox="0 0 28 28" fill="none" xmlns="http://www.w3.org/2000/svg">
<path d="M13.0304 0.841053C13.2846 -0.165946 14.7154 -0.16595 14.9696 0.84105L15.4253 2.64653C16.7673 7.96294 21.1719 12.0216 26.5658 13.0071C27.6595 13.2069 27.6595 14.7931 26.5658 14.9929C21.1719 15.9784 16.7673 20.0371 15.4253 25.3535L14.9696 27.1589C14.7154 28.1659 13.2846 28.166 13.0304 27.159L12.5747 25.3535C11.2327 20.0371 6.82811 15.9784 1.43423 14.9929C0.340542 14.7931 0.340541 13.2069 1.43423 13.0071C6.82811 12.0216 11.2327 7.96294 12.5747 2.64654L13.0304 0.841053Z" fill="#A8FC99"/>
</svg>
