<svg width="22" height="22" viewBox="0 0 22 22" fill="none" xmlns="http://www.w3.org/2000/svg">
<g clip-path="url(#clip0_2428_1994)">
<path d="M10.9997 21.999C4.92471 21.9989 -4.29675e-05 17.0742 2.81164e-10 10.9992C2.81164e-10 8.08187 1.15888 5.28407 3.22172 3.22123C7.51802 -1.0743 14.4831 -1.07366 18.7786 3.22265C22.5244 6.96913 23.0676 12.8534 20.0711 17.2224C20.2098 17.7946 21.0076 19.4127 21.742 20.7046C21.9495 21.0697 21.8218 21.5338 21.4568 21.7413C21.2278 21.8715 20.9478 21.8739 20.7167 21.7477C20.709 21.7433 19.9394 21.3241 19.074 20.9086C17.8612 20.3265 17.3368 20.1701 17.1383 20.128C15.3253 21.3518 13.187 22.0035 10.9997 21.999ZM10.9997 1.52009C5.77289 1.52009 1.52059 5.77239 1.52059 10.9992C1.52059 16.226 5.77289 20.4784 10.9997 20.4784C12.9432 20.4825 14.8404 19.8855 16.4312 18.769C16.857 18.4707 17.4261 18.6032 17.9777 18.7907C18.3347 18.9124 18.7808 19.0957 19.3054 19.3371C19.0609 18.8316 18.8735 18.4022 18.7477 18.0588C18.5153 17.4245 18.4195 16.9196 18.7073 16.5184C19.8638 14.9109 20.4837 12.9795 20.4789 10.9992C20.4789 5.77239 16.2266 1.52009 10.9997 1.52009Z" fill="#E4E7EC"/>
</g>
<defs>
<clipPath id="clip0_2428_1994">
<rect width="22" height="22" fill="white"/>
</clipPath>
</defs>
</svg>
