<svg width="21" height="20" viewBox="0 0 21 20" fill="none" xmlns="http://www.w3.org/2000/svg">
<path fill-rule="evenodd" clip-rule="evenodd" d="M4.85897 11.2821C9.03231 11.2821 9.21795 12.6974 9.21795 15.641C9.21795 17.1159 9.21795 18.1651 8.59846 18.9333C7.88564 19.8185 6.58821 20 4.85897 20C3.12974 20 1.83231 19.8185 1.11949 18.9333C0.5 18.1651 0.5 17.1169 0.5 15.6667L1.26923 15.641H0.5C0.5 12.6974 0.685641 11.2821 4.85897 11.2821ZM16.141 11.2821C20.3144 11.2821 20.5 12.6974 20.5 15.641C20.5 17.1159 20.5 18.1651 19.8805 18.9333C19.1677 19.8185 17.8703 20 16.141 20C14.4118 20 13.1144 19.8185 12.4015 18.9333C11.7821 18.1651 11.7821 17.1169 11.7821 15.6667L12.5513 15.641H11.7821C11.7821 12.6974 11.9677 11.2821 16.141 11.2821ZM5.07042 12.821L4.85897 12.8205C2.1831 12.8205 2.04588 13.0125 2.03884 15.2585L2.03927 16.1335C2.04413 17.0268 2.07817 17.6721 2.31641 17.9692C2.58821 18.3056 3.39538 18.4615 4.85897 18.4615C6.32256 18.4615 7.12974 18.3046 7.40154 17.9682C7.67949 17.6226 7.67949 16.8021 7.67949 15.6656C7.67949 13.1013 7.67949 12.833 5.07042 12.821ZM16.3525 12.821L16.141 12.8205C13.4652 12.8205 13.3279 13.0125 13.3209 15.2585L13.3213 16.1335C13.3262 17.0268 13.3602 17.6721 13.5985 17.9692C13.8703 18.3056 14.6774 18.4615 16.141 18.4615C17.6046 18.4615 18.4118 18.3046 18.6836 17.9682C18.9615 17.6226 18.9615 16.8021 18.9615 15.6656C18.9615 13.1013 18.9615 12.833 16.3525 12.821ZM4.85897 0C9.03231 0 9.21795 1.41538 9.21795 4.35897C9.21795 5.83385 9.21795 6.88308 8.59846 7.65128C7.88564 8.53641 6.58821 8.71795 4.85897 8.71795C3.12974 8.71795 1.83231 8.53641 1.11949 7.65128C0.5 6.88308 0.5 5.83487 0.5 4.38462L1.26923 4.35897H0.5C0.5 1.41538 0.685641 0 4.85897 0ZM16.141 0C20.3144 0 20.5 1.41538 20.5 4.35897C20.5 5.83385 20.5 6.88308 19.8805 7.65128C19.1677 8.53641 17.8703 8.71795 16.141 8.71795C14.4118 8.71795 13.1144 8.53641 12.4015 7.65128C11.7821 6.88308 11.7821 5.83487 11.7821 4.38462L12.5513 4.35897H11.7821C11.7821 1.41538 11.9677 0 16.141 0ZM5.07042 1.53892L4.85897 1.53846C2.1831 1.53846 2.04588 1.73048 2.03884 3.97646L2.03927 4.85147C2.04413 5.74476 2.07817 6.39004 2.31641 6.68718C2.58821 7.02359 3.39538 7.17949 4.85897 7.17949C6.32256 7.17949 7.12974 7.02256 7.40154 6.68615C7.67949 6.34051 7.67949 5.52 7.67949 4.38359C7.67949 1.81928 7.67949 1.55099 5.07042 1.53892ZM16.3525 1.53892L16.141 1.53846C13.4652 1.53846 13.3279 1.73048 13.3209 3.97646L13.3213 4.85147C13.3262 5.74476 13.3602 6.39004 13.5985 6.68718C13.8703 7.02359 14.6774 7.17949 16.141 7.17949C17.6046 7.17949 18.4118 7.02256 18.6836 6.68615C18.9615 6.34051 18.9615 5.52 18.9615 4.38359C18.9615 1.81928 18.9615 1.55099 16.3525 1.53892Z" fill="#2882FF"/>
</svg>
