<svg width="40" height="40" viewBox="0 0 40 40" fill="none" xmlns="http://www.w3.org/2000/svg">
<path d="M16.1582 22.0444C16.0327 22.0444 13.4006 22.0452 12.1866 22.044C11.5616 22.0436 11.3386 21.8191 11.3386 21.1901C11.3378 19.5745 11.3374 17.9589 11.3386 16.3433C11.339 15.7224 11.5748 15.4854 12.1918 15.485C13.4058 15.4842 16.0236 15.4846 16.1582 15.4846C16.1582 15.3739 16.1578 13.0414 16.1582 11.9673C16.159 10.3793 16.4423 8.85923 17.2491 7.46742C18.0751 6.04285 19.2771 5.06702 20.8176 4.50279C21.8042 4.14115 22.8283 3.9969 23.8753 3.9961C25.1852 3.9953 26.4951 3.9965 27.8054 3.99889C28.3684 3.99969 28.6181 4.24864 28.6193 4.81568C28.6217 6.33535 28.6217 7.85503 28.6193 9.37431C28.6185 9.94734 28.3792 10.1775 27.8034 10.1839C26.7296 10.1955 25.6551 10.1883 24.5826 10.2315C23.4993 10.2315 22.9294 10.7605 22.9294 11.8818C22.9035 13.0678 22.9187 14.255 22.9187 15.4842C23.0202 15.4842 26.1031 15.4838 27.544 15.4842C28.1986 15.4842 28.4223 15.7092 28.4223 16.3673C28.4223 17.9741 28.4219 19.5813 28.4207 21.1881C28.4203 21.8366 28.2102 22.0436 27.5516 22.044C26.1107 22.0448 23.0397 22.0444 22.9055 22.0444V35.0494C22.9055 35.7427 22.6873 35.9637 22.0032 35.9637C20.3352 35.9637 18.6669 35.9641 16.999 35.9637C16.3944 35.9637 16.1586 35.7287 16.1586 35.1241C16.1582 30.8888 16.1582 22.1931 16.1582 22.0444Z" fill="#3D6AD6"/>
</svg>
