<svg width="22" height="22" viewBox="0 0 22 22" fill="none" xmlns="http://www.w3.org/2000/svg">
<path d="M18.5914 20.977H12.6744C12.5276 20.977 12.3869 20.9187 12.2832 20.815C12.1794 20.7112 12.1211 20.5705 12.1211 20.4237V13.231C12.1211 13.0984 12.1689 12.9701 12.2555 12.8697C12.9224 12.0982 13.451 11.2173 13.8181 10.266C13.9272 9.98227 14.0214 9.69306 14.1002 9.39951C14.2086 8.99201 14.4274 8.62239 14.7327 8.33151C15.0379 8.04062 15.4177 7.83979 15.8299 7.75122C16.2422 7.66265 16.6709 7.68977 17.0687 7.82961C17.4665 7.96944 17.8178 8.21653 18.084 8.54358C18.2948 8.79968 18.4458 9.09966 18.5258 9.42159C18.6059 9.74352 18.6129 10.0793 18.5465 10.4043C18.3459 11.3913 18.0018 12.3437 17.5252 13.231H19.4191C19.7582 13.2299 20.0929 13.3069 20.3974 13.4561C20.7019 13.6054 20.9679 13.8227 21.1747 14.0914C21.3812 14.355 21.5243 14.6627 21.5927 14.9906C21.6611 15.3185 21.6531 15.6577 21.5692 15.9819C21.4615 16.4002 21.3486 16.8244 21.2306 17.2545C21.1199 17.6567 21.006 18.1508 20.8903 18.6521L20.7448 19.279C20.6307 19.7638 20.3557 20.1956 19.9646 20.504C19.5735 20.8124 19.0894 20.9791 18.5914 20.977ZM13.2277 19.8704H18.5914C18.8404 19.8716 19.0824 19.7882 19.2779 19.6341C19.4735 19.48 19.611 19.2641 19.6681 19.0217L19.8119 18.402C19.9314 17.883 20.0487 17.3718 20.1638 16.9563C20.2789 16.5408 20.3918 16.1181 20.4958 15.7075C20.5378 15.5462 20.5419 15.3774 20.5078 15.2142C20.4737 15.0511 20.4024 14.898 20.2994 14.7669C20.1954 14.6326 20.062 14.524 19.9093 14.4496C19.7567 14.3751 19.5889 14.3368 19.4191 14.3376H16.5475C16.4473 14.3376 16.3489 14.3103 16.263 14.2588C16.1771 14.2073 16.1067 14.1333 16.0595 14.0449C16.0123 13.9566 15.99 13.857 15.995 13.7569C15.9999 13.6568 16.032 13.56 16.0877 13.4767C16.7561 12.4783 17.2238 11.3594 17.4648 10.1824C17.4982 10.018 17.4944 9.84816 17.4536 9.6854C17.4128 9.52264 17.3361 9.37108 17.2291 9.24182C17.092 9.07177 16.9103 8.94313 16.7044 8.87023C16.4984 8.79732 16.2763 8.78302 16.0626 8.8289C15.849 8.87479 15.6524 8.97907 15.4945 9.13012C15.3367 9.28117 15.2239 9.47307 15.1687 9.68445C14.7986 11.0591 14.1366 12.3378 13.2277 13.4335V19.8704Z" fill="#7A7F89"/>
<path d="M12.6739 20.977H11.014C10.427 20.977 9.86406 20.7438 9.44901 20.3288C9.03396 19.9138 8.80078 19.3508 8.80078 18.7639V14.8909C8.80078 14.3039 9.03396 13.741 9.44901 13.3259C9.86406 12.9109 10.427 12.6777 11.014 12.6777H12.6739C12.8206 12.6777 12.9613 12.736 13.0651 12.8398C13.1689 12.9435 13.2272 13.0843 13.2272 13.231V20.4237C13.2272 20.5705 13.1689 20.7112 13.0651 20.815C12.9613 20.9187 12.8206 20.977 12.6739 20.977ZM11.014 13.7843C10.7205 13.7843 10.439 13.9009 10.2315 14.1084C10.024 14.3159 9.90738 14.5974 9.90738 14.8909V18.7639C9.90738 19.0574 10.024 19.3388 10.2315 19.5463C10.439 19.7539 10.7205 19.8704 11.014 19.8704H12.1206V13.7843H11.014Z" fill="#7A7F89"/>
<path d="M6.7361 13.4808C5.605 13.4811 4.49232 13.1945 3.50218 12.6477C3.47211 12.63 3.43649 12.6243 3.4024 12.6317L1.19823 13.2937C1.0579 13.3359 0.908768 13.3392 0.766684 13.3034C0.624599 13.2676 0.494863 13.194 0.391255 13.0904C0.287646 12.9868 0.214034 12.8571 0.178236 12.715C0.142438 12.5729 0.145791 12.4238 0.187939 12.2835L0.848992 10.0793C0.856982 10.0452 0.851247 10.0094 0.833027 9.9795C0.295672 9.00274 0.00949627 7.90775 0.00023231 6.79298C-0.00903165 5.67821 0.258907 4.57862 0.779954 3.59307C1.301 2.60752 2.05882 1.76692 2.98527 1.14685C3.91173 0.526787 4.97776 0.146695 6.08752 0.040754C7.86317 -0.155408 9.64402 0.361838 11.0383 1.4787C12.4326 2.59557 13.3261 4.22057 13.5222 5.99622C13.7184 7.77186 13.2012 9.55271 12.0843 10.947C10.9674 12.3413 9.34243 13.2348 7.56679 13.4309C7.29117 13.4645 7.01375 13.4811 6.7361 13.4808ZM3.43333 11.6294C3.6255 11.6304 3.8143 11.68 3.98213 11.7736C4.76966 12.2043 5.64729 12.4441 6.54441 12.4738C7.44153 12.5034 8.33308 12.3221 9.14734 11.9444C9.9616 11.5666 10.6758 11.003 11.2325 10.2989C11.7893 9.59482 12.1729 8.76987 12.3527 7.89045C12.5325 7.01102 12.5033 6.10168 12.2675 5.23559C12.0317 4.3695 11.596 3.57084 10.9952 2.90388C10.3945 2.23692 9.64565 1.72027 8.80884 1.39552C7.97204 1.07076 7.0707 0.946962 6.17733 1.03408C5.23285 1.12518 4.32579 1.44946 3.53763 1.9778C2.74947 2.50613 2.10489 3.22198 1.66179 4.06103C1.2187 4.90008 0.990964 5.83606 0.999049 6.78488C1.00713 7.73371 1.25078 8.66567 1.70811 9.49705C1.78208 9.62777 1.82903 9.77201 1.84617 9.92122C1.86331 10.0704 1.85029 10.2216 1.80789 10.3657L1.24363 12.2381L3.11603 11.6763C3.21892 11.6451 3.32584 11.6293 3.43333 11.6294Z" fill="#7A7F89"/>
<path d="M6.72543 9.986C6.36005 9.98698 6.00883 9.84478 5.74707 9.58987L3.68009 7.56729C3.46242 7.35582 3.28939 7.10282 3.17123 6.82328C3.05307 6.54374 2.99219 6.24334 2.99219 5.93986C2.99219 5.63637 3.05307 5.33597 3.17123 5.05643C3.28939 4.77689 3.46242 4.5239 3.68009 4.31242C4.09364 3.94425 4.61992 3.72737 5.17279 3.69728C5.72566 3.66719 6.27237 3.82567 6.72343 4.14678C7.14271 3.84214 7.64839 3.67952 8.16664 3.68266C8.6849 3.6858 9.18857 3.85454 9.60413 4.16424C9.85598 4.36532 10.0621 4.6177 10.2089 4.90461C10.3557 5.19151 10.4398 5.50637 10.4555 5.82826C10.4712 6.15015 10.4182 6.4717 10.3001 6.77154C10.1819 7.07138 10.0013 7.34264 9.77026 7.56729L7.70379 9.58987C7.44202 9.84478 7.0908 9.98698 6.72543 9.986ZM5.25714 4.70057C4.93259 4.69086 4.61705 4.80809 4.37757 5.02736C4.25493 5.1459 4.1574 5.28792 4.0908 5.44494C4.02419 5.60196 3.98987 5.77079 3.98987 5.94135C3.98987 6.11192 4.02419 6.28074 4.0908 6.43777C4.1574 6.59479 4.25493 6.73681 4.37757 6.85535L6.44504 8.87842C6.52037 8.95113 6.62098 8.99176 6.72568 8.99176C6.83037 8.99176 6.93098 8.95113 7.00631 8.87842L9.07329 6.85535C9.20354 6.73016 9.30545 6.5785 9.37215 6.41059C9.43885 6.24269 9.46879 6.06243 9.45994 5.88198C9.45177 5.69965 9.40461 5.52119 9.32165 5.35862C9.23869 5.19605 9.12184 5.05315 8.97899 4.93955C8.68873 4.74359 8.33843 4.65682 7.99026 4.69463C7.64209 4.73245 7.31858 4.8924 7.07716 5.1461C6.9839 5.23751 6.85851 5.28871 6.72792 5.28871C6.59733 5.28871 6.47195 5.23751 6.37869 5.1461C6.07606 4.85886 5.67438 4.69929 5.25714 4.70057Z" fill="#7A7F89"/>
</svg>
