<svg width="40" height="40" viewBox="0 0 40 40" fill="none" xmlns="http://www.w3.org/2000/svg">
<path d="M31.8707 19.8894C31.8707 19.0344 31.7957 18.2228 31.6672 17.4327H19.5627V22.3137H26.4933C26.1826 23.9154 25.2721 25.2682 23.9224 26.1881V29.4349H28.0572C30.4781 27.173 31.8707 23.8396 31.8707 19.8894Z" fill="#4285F4"/>
<path d="M19.5627 32.5842C23.0333 32.5842 25.9363 31.4154 28.0572 29.4349L23.9224 26.1881C22.7655 26.9673 21.298 27.4435 19.5627 27.4435C16.2098 27.4435 13.3712 25.16 12.3535 22.0756H8.09019V25.4197C10.2004 29.6621 14.5388 32.5842 19.5627 32.5842Z" fill="#34A853"/>
<path d="M12.3535 22.0756C12.0857 21.2964 11.9465 20.463 11.9465 19.5972C11.9465 18.7314 12.0965 17.8981 12.3535 17.1189V13.7747H8.09019C7.21181 15.528 6.70835 17.4977 6.70835 19.5972C6.70835 21.6968 7.21181 23.6665 8.09019 25.4197L12.3535 22.0756Z" fill="#FBBC05"/>
<path d="M19.5627 11.7509C21.4587 11.7509 23.1512 12.4111 24.4902 13.6989L28.1536 9.99765C25.9363 7.89808 23.0333 6.61021 19.5627 6.61021C14.5388 6.61021 10.2004 9.53228 8.09019 13.7747L12.3535 17.1189C13.3712 14.0344 16.2098 11.7509 19.5627 11.7509Z" fill="#EA4335"/>
</svg>
