<svg width="24" height="24" viewBox="0 0 24 24" fill="none" xmlns="http://www.w3.org/2000/svg">
<g clip-path="url(#clip0_1480_3529)">
<path d="M17.269 9.05955C17.057 9.05955 16.8584 8.92783 16.7832 8.71678C16.3593 7.52636 15.2252 6.72663 13.961 6.72663C12.7007 6.72663 11.5677 7.52322 11.1417 8.70881C11.0454 8.97681 10.7501 9.11614 10.482 9.01971C10.214 8.92342 10.0748 8.62809 10.1712 8.36009C10.7439 6.76619 12.267 5.69531 13.961 5.69531C15.6603 5.69531 17.1849 6.77055 17.7548 8.37078C17.8503 8.63911 17.7103 8.93402 17.442 9.02955C17.3848 9.0499 17.3264 9.05955 17.269 9.05955Z" fill="#A8FC99"/>
<path d="M22.0382 19.1343H15.9212C14.3503 19.1343 13.0723 17.856 13.0723 16.2849C13.0723 14.7138 14.3503 13.4355 15.9212 13.4355H22.0382C22.323 13.4355 22.5538 13.6664 22.5538 13.9512C22.5538 14.236 22.323 14.4669 22.0382 14.4669H15.9212C14.919 14.4669 14.1036 15.2824 14.1036 16.2849C14.1036 17.2874 14.919 18.1029 15.9212 18.1029H22.0382C22.323 18.1029 22.5538 18.3338 22.5538 18.6186C22.5538 18.9034 22.323 19.1343 22.0382 19.1343Z" fill="#A8FC99"/>
<path d="M17.6452 16.8008H16.2149C15.9301 16.8008 15.6992 16.57 15.6992 16.2852C15.6992 16.0004 15.9301 15.7695 16.2149 15.7695H17.6452C17.93 15.7695 18.1609 16.0004 18.1609 16.2852C18.1609 16.57 17.93 16.8008 17.6452 16.8008Z" fill="#A8FC99"/>
<path d="M21.5309 8.74997C21.7296 8.40326 21.8355 8.00972 21.8355 7.59991C21.8355 6.97653 21.5907 6.39074 21.1462 5.95042L15.8249 0.679273C14.9105 -0.226409 13.4227 -0.226456 12.5083 0.67932L8.64086 4.51032H3.62014C2.26583 4.51032 1.16406 5.61233 1.16406 6.96682C1.16406 6.97971 1.16453 6.99246 1.16547 7.00512C1.16453 7.01778 1.16406 7.03053 1.16406 7.04342V21.5435C1.16406 22.8981 2.27432 24 3.63903 24H20.2018C21.6536 24 22.8347 22.8279 22.8347 21.3872V11.0048C22.8346 10.0448 22.3103 9.20417 21.5309 8.74997ZM13.2341 1.41202C13.7483 0.902646 14.5849 0.902693 15.0991 1.41198L20.4204 6.68312C20.6679 6.92824 20.8042 7.25386 20.8042 7.59991C20.8042 7.8981 20.703 8.1811 20.5167 8.41057C20.4135 8.39829 20.3084 8.392 20.2019 8.392H6.18769L13.2341 1.41202ZM3.62014 5.54164H7.59975L4.72228 8.392H3.62014C2.85162 8.392 2.22627 7.79089 2.19646 7.02345C2.19608 7.01398 2.19542 7.00456 2.19458 6.99523C2.1951 6.98581 2.19538 6.97639 2.19538 6.96687C2.19538 6.18101 2.83451 5.54164 3.62014 5.54164ZM21.8033 21.3872C21.8033 22.2593 21.0849 22.9687 20.2018 22.9687H3.63903C2.843 22.9687 2.19538 22.3294 2.19538 21.5436V8.97137C2.59703 9.25653 3.08873 9.42332 3.62014 9.42332H20.2018C21.0849 9.42332 21.8033 10.1328 21.8033 11.0048L21.8033 21.3872Z" fill="#F2F4F7"/>
</g>
<defs>
<clipPath id="clip0_1480_3529">
<rect width="24" height="24" fill="white"/>
</clipPath>
</defs>
</svg>
