<svg width="21" height="22" viewBox="0 0 21 22" fill="none" xmlns="http://www.w3.org/2000/svg">
<path d="M10.332 8.91016L8.38331 10.8589L12.0243 14.4999C12.3642 14.8398 12.3642 15.3908 12.0243 15.7307L8.20383 19.5512L10.1525 21.4999L12.8464 18.8061C13.0096 18.6429 13.1013 18.4215 13.1013 18.1907L13.1013 12.0399C13.1013 11.8091 13.0096 11.5877 12.8464 11.4245L10.332 8.91016Z" fill="#A8FC99"/>
<path d="M10.6406 13.1162L12.5893 11.1675L8.94832 7.52647C8.60845 7.1866 8.60845 6.63557 8.94832 6.2957L12.7945 2.44955L10.8458 0.500829L8.1263 3.22029C7.96309 3.3835 7.8714 3.60486 7.8714 3.83567L7.8714 9.9865C7.8714 10.2173 7.96309 10.4387 8.1263 10.6019L10.6406 13.1162Z" fill="#A8FC99"/>
<path d="M14.2812 5.04004L12.3325 6.98876L16.4864 11.1426C16.8262 11.4825 16.8262 12.0335 16.4864 12.3734L13.8454 15.0144L15.7941 16.9631L17.3084 15.4488C17.4716 15.2856 17.5633 15.0642 17.5633 14.8334L17.5633 8.68257C17.5633 8.45176 17.4716 8.2304 17.3084 8.06719L14.2812 5.04004Z" fill="#A8FC99"/>
<path d="M6.71875 16.9619L8.66747 15.0132L4.51362 10.8594C4.17376 10.5195 4.17376 9.96845 4.51362 9.62858L7.15465 6.98756L5.20593 5.03884L3.6916 6.55317C3.52839 6.71638 3.4367 6.93774 3.4367 7.16855L3.4367 13.3194C3.4367 13.5502 3.52839 13.7716 3.6916 13.9348L6.71875 16.9619Z" fill="#A8FC99"/>
</svg>
