<svg width="29" height="28" viewBox="0 0 29 28" fill="none" xmlns="http://www.w3.org/2000/svg">
<g clip-path="url(#clip0_1992_5373)">
<path d="M22.6497 24.187H18.1242H16.9055H16.6423V18.1167H18.6276C19.1311 18.1167 19.4286 17.5446 19.1311 17.1326L15.2692 11.789C15.0232 11.4457 14.514 11.4457 14.268 11.789L10.4061 17.1326C10.1086 17.5446 10.4004 18.1167 10.9096 18.1167H12.8949V24.187H12.6317H11.4131H6.16666C3.16298 24.0211 0.771484 21.2119 0.771484 18.1682C0.771484 16.0685 1.91002 14.2377 3.5978 13.2479C3.44333 12.8302 3.36323 12.384 3.36323 11.9148C3.36323 9.76934 5.09678 8.03579 7.24227 8.03579C7.70569 8.03579 8.15195 8.11589 8.5696 8.27036C9.81112 5.63857 12.4887 3.81348 15.6011 3.81348C19.6289 3.8192 22.9472 6.90297 23.3248 10.8335C26.42 11.3656 28.7715 14.2319 28.7715 17.4759C28.7715 20.943 26.071 23.9467 22.6497 24.187Z" fill="white"/>
</g>
<defs>
<clipPath id="clip0_1992_5373">
<rect width="28" height="28" fill="white" transform="translate(0.771484)"/>
</clipPath>
</defs>
</svg>
